<mxfile host="app.diagrams.net" modified="2023-09-15T21:21:05.485Z" agent="Mozilla/5.0 (Windows NT 10.0; Win64; x64) AppleWebKit/537.36 (KHTML, like Gecko) Chrome/116.0.0.0 Safari/537.36" etag="wYlaKVbTlb0zHEyIKSep" version="21.7.5" type="device">
  <diagram id="R2lEEEUBdFMjLlhIrx00" name="Page-1">
    <mxGraphModel dx="2254" dy="2263" grid="1" gridSize="10" guides="1" tooltips="1" connect="1" arrows="1" fold="1" page="1" pageScale="1" pageWidth="1100" pageHeight="1700" background="none" math="0" shadow="0" extFonts="Permanent Marker^https://fonts.googleapis.com/css?family=Permanent+Marker">
      <root>
        <mxCell id="0" />
        <mxCell id="1" parent="0" />
        <mxCell id="u0Waulj6cbrL7kYw__7z-2" value="&lt;font style=&quot;font-size: 18px;&quot;&gt;produto&lt;/font&gt;" style="rounded=0;whiteSpace=wrap;html=1;" parent="1" vertex="1">
          <mxGeometry x="-450" y="-1000" width="120" height="60" as="geometry" />
        </mxCell>
        <mxCell id="M-Kk_DBBXMK0dHsBA82f-29" style="edgeStyle=orthogonalEdgeStyle;rounded=0;orthogonalLoop=1;jettySize=auto;html=1;entryX=0.083;entryY=1;entryDx=0;entryDy=0;entryPerimeter=0;endArrow=none;endFill=0;" parent="1" source="u0Waulj6cbrL7kYw__7z-3" target="u0Waulj6cbrL7kYw__7z-2" edge="1">
          <mxGeometry relative="1" as="geometry">
            <Array as="points">
              <mxPoint x="-460" y="-940" />
            </Array>
          </mxGeometry>
        </mxCell>
        <mxCell id="u0Waulj6cbrL7kYw__7z-3" value="&lt;span style=&quot;font-weight: normal;&quot;&gt;nome_produto&lt;/span&gt;" style="ellipse;whiteSpace=wrap;html=1;fontStyle=1" parent="1" vertex="1">
          <mxGeometry x="-560" y="-920" width="100" height="40" as="geometry" />
        </mxCell>
        <mxCell id="M-Kk_DBBXMK0dHsBA82f-142" style="edgeStyle=orthogonalEdgeStyle;rounded=0;orthogonalLoop=1;jettySize=auto;html=1;entryX=0.25;entryY=1;entryDx=0;entryDy=0;endArrow=none;endFill=0;" parent="1" source="u0Waulj6cbrL7kYw__7z-4" target="u0Waulj6cbrL7kYw__7z-2" edge="1">
          <mxGeometry relative="1" as="geometry" />
        </mxCell>
        <mxCell id="u0Waulj6cbrL7kYw__7z-4" value="&lt;u&gt;codigo&lt;/u&gt;" style="ellipse;whiteSpace=wrap;html=1;" parent="1" vertex="1">
          <mxGeometry x="-480" y="-880" width="80" height="40" as="geometry" />
        </mxCell>
        <mxCell id="u0Waulj6cbrL7kYw__7z-5" value="descricao" style="ellipse;whiteSpace=wrap;html=1;" parent="1" vertex="1">
          <mxGeometry x="-350" y="-910" width="80" height="40" as="geometry" />
        </mxCell>
        <mxCell id="M-Kk_DBBXMK0dHsBA82f-87" value="" style="edgeStyle=orthogonalEdgeStyle;rounded=0;orthogonalLoop=1;jettySize=auto;html=1;endArrow=none;endFill=0;" parent="1" source="u0Waulj6cbrL7kYw__7z-6" target="u0Waulj6cbrL7kYw__7z-2" edge="1">
          <mxGeometry relative="1" as="geometry" />
        </mxCell>
        <mxCell id="u0Waulj6cbrL7kYw__7z-6" value="&lt;span style=&quot;font-weight: normal;&quot;&gt;categoria&lt;/span&gt;" style="ellipse;whiteSpace=wrap;html=1;fontStyle=1" parent="1" vertex="1">
          <mxGeometry x="-575" y="-970" width="80" height="40" as="geometry" />
        </mxCell>
        <mxCell id="u0Waulj6cbrL7kYw__7z-7" value="&lt;span style=&quot;font-weight: normal;&quot;&gt;preco&lt;/span&gt;" style="ellipse;whiteSpace=wrap;html=1;fontStyle=1" parent="1" vertex="1">
          <mxGeometry x="-540" y="-1020" width="70" height="40" as="geometry" />
        </mxCell>
        <mxCell id="M-Kk_DBBXMK0dHsBA82f-26" style="edgeStyle=orthogonalEdgeStyle;rounded=0;orthogonalLoop=1;jettySize=auto;html=1;entryX=0.25;entryY=0;entryDx=0;entryDy=0;endArrow=none;endFill=0;" parent="1" source="u0Waulj6cbrL7kYw__7z-8" target="u0Waulj6cbrL7kYw__7z-2" edge="1">
          <mxGeometry relative="1" as="geometry" />
        </mxCell>
        <mxCell id="u0Waulj6cbrL7kYw__7z-8" value="&lt;span style=&quot;font-weight: normal;&quot;&gt;estoque&lt;/span&gt;" style="ellipse;whiteSpace=wrap;html=1;fontStyle=1" parent="1" vertex="1">
          <mxGeometry x="-480" y="-1060" width="80" height="40" as="geometry" />
        </mxCell>
        <mxCell id="u0Waulj6cbrL7kYw__7z-9" value="" style="endArrow=none;html=1;rounded=0;entryX=0.75;entryY=1;entryDx=0;entryDy=0;" parent="1" target="u0Waulj6cbrL7kYw__7z-2" edge="1">
          <mxGeometry width="50" height="50" relative="1" as="geometry">
            <mxPoint x="-320" y="-910" as="sourcePoint" />
            <mxPoint x="-270" y="-960" as="targetPoint" />
            <Array as="points">
              <mxPoint x="-320" y="-920" />
              <mxPoint x="-360" y="-920" />
            </Array>
          </mxGeometry>
        </mxCell>
        <mxCell id="u0Waulj6cbrL7kYw__7z-13" value="" style="endArrow=none;html=1;rounded=0;exitX=1;exitY=0.5;exitDx=0;exitDy=0;" parent="1" source="u0Waulj6cbrL7kYw__7z-7" edge="1">
          <mxGeometry width="50" height="50" relative="1" as="geometry">
            <mxPoint x="-460" y="-960" as="sourcePoint" />
            <mxPoint x="-450" y="-980" as="targetPoint" />
            <Array as="points">
              <mxPoint x="-470" y="-980" />
            </Array>
          </mxGeometry>
        </mxCell>
        <mxCell id="u0Waulj6cbrL7kYw__7z-16" value="&lt;font style=&quot;font-size: 18px;&quot;&gt;cliente&lt;br&gt;&lt;/font&gt;" style="rounded=0;whiteSpace=wrap;html=1;" parent="1" vertex="1">
          <mxGeometry x="260" y="-570" width="90" height="40" as="geometry" />
        </mxCell>
        <mxCell id="qwGrxkF3Ybjj59Ug6xA2-4" style="edgeStyle=orthogonalEdgeStyle;rounded=0;orthogonalLoop=1;jettySize=auto;html=1;entryX=0;entryY=0.5;entryDx=0;entryDy=0;endArrow=none;endFill=0;" parent="1" source="u0Waulj6cbrL7kYw__7z-17" target="u0Waulj6cbrL7kYw__7z-16" edge="1">
          <mxGeometry relative="1" as="geometry" />
        </mxCell>
        <mxCell id="u0Waulj6cbrL7kYw__7z-17" value="&lt;span style=&quot;font-weight: normal;&quot;&gt;nome&lt;/span&gt;" style="ellipse;whiteSpace=wrap;html=1;fontStyle=1" parent="1" vertex="1">
          <mxGeometry x="205" y="-520" width="70" height="40" as="geometry" />
        </mxCell>
        <mxCell id="M-Kk_DBBXMK0dHsBA82f-85" style="edgeStyle=orthogonalEdgeStyle;rounded=0;orthogonalLoop=1;jettySize=auto;html=1;entryX=0.911;entryY=0.998;entryDx=0;entryDy=0;entryPerimeter=0;endArrow=none;endFill=0;" parent="1" source="u0Waulj6cbrL7kYw__7z-18" target="u0Waulj6cbrL7kYw__7z-16" edge="1">
          <mxGeometry relative="1" as="geometry" />
        </mxCell>
        <mxCell id="u0Waulj6cbrL7kYw__7z-18" value="&lt;u&gt;cpf&lt;/u&gt;" style="ellipse;whiteSpace=wrap;html=1;" parent="1" vertex="1">
          <mxGeometry x="315" y="-510" width="70" height="40" as="geometry" />
        </mxCell>
        <mxCell id="M-Kk_DBBXMK0dHsBA82f-94" style="edgeStyle=orthogonalEdgeStyle;rounded=0;orthogonalLoop=1;jettySize=auto;html=1;endArrow=none;endFill=0;" parent="1" source="u0Waulj6cbrL7kYw__7z-20" edge="1">
          <mxGeometry relative="1" as="geometry">
            <Array as="points">
              <mxPoint x="400" y="-555" />
              <mxPoint x="350" y="-555" />
            </Array>
            <mxPoint x="350" y="-550" as="targetPoint" />
          </mxGeometry>
        </mxCell>
        <mxCell id="u0Waulj6cbrL7kYw__7z-20" value="&lt;span style=&quot;font-weight: normal;&quot;&gt;telefone&lt;/span&gt;" style="ellipse;whiteSpace=wrap;html=1;fontStyle=1" parent="1" vertex="1">
          <mxGeometry x="390" y="-600" width="70" height="40" as="geometry" />
        </mxCell>
        <mxCell id="M-Kk_DBBXMK0dHsBA82f-93" style="edgeStyle=orthogonalEdgeStyle;rounded=0;orthogonalLoop=1;jettySize=auto;html=1;entryX=1;entryY=0.25;entryDx=0;entryDy=0;endArrow=none;endFill=0;" parent="1" source="u0Waulj6cbrL7kYw__7z-21" target="u0Waulj6cbrL7kYw__7z-16" edge="1">
          <mxGeometry relative="1" as="geometry" />
        </mxCell>
        <mxCell id="u0Waulj6cbrL7kYw__7z-21" value="&lt;span style=&quot;font-weight: normal;&quot;&gt;email&lt;/span&gt;" style="ellipse;whiteSpace=wrap;html=1;fontStyle=1" parent="1" vertex="1">
          <mxGeometry x="320" y="-620" width="70" height="40" as="geometry" />
        </mxCell>
        <mxCell id="u0Waulj6cbrL7kYw__7z-29" value="&lt;font style=&quot;font-size: 18px;&quot;&gt;fornecedor&lt;/font&gt;" style="rounded=0;whiteSpace=wrap;html=1;" parent="1" vertex="1">
          <mxGeometry x="-420" y="-480" width="120" height="60" as="geometry" />
        </mxCell>
        <mxCell id="M-Kk_DBBXMK0dHsBA82f-38" style="edgeStyle=orthogonalEdgeStyle;rounded=0;orthogonalLoop=1;jettySize=auto;html=1;entryX=0.75;entryY=1;entryDx=0;entryDy=0;endArrow=none;endFill=0;" parent="1" source="u0Waulj6cbrL7kYw__7z-32" target="u0Waulj6cbrL7kYw__7z-29" edge="1">
          <mxGeometry relative="1" as="geometry" />
        </mxCell>
        <mxCell id="u0Waulj6cbrL7kYw__7z-32" value="nome_empresa" style="ellipse;whiteSpace=wrap;html=1;" parent="1" vertex="1">
          <mxGeometry x="-295" y="-420" width="100" height="40" as="geometry" />
        </mxCell>
        <mxCell id="qwGrxkF3Ybjj59Ug6xA2-14" style="edgeStyle=orthogonalEdgeStyle;rounded=0;orthogonalLoop=1;jettySize=auto;html=1;entryX=0;entryY=0.25;entryDx=0;entryDy=0;endArrow=none;endFill=0;" parent="1" source="u0Waulj6cbrL7kYw__7z-33" target="u0Waulj6cbrL7kYw__7z-29" edge="1">
          <mxGeometry relative="1" as="geometry" />
        </mxCell>
        <mxCell id="u0Waulj6cbrL7kYw__7z-33" value="&lt;span style=&quot;font-weight: 400;&quot;&gt;telefone&lt;/span&gt;" style="ellipse;whiteSpace=wrap;html=1;fontStyle=1" parent="1" vertex="1">
          <mxGeometry x="-510" y="-500" width="60" height="40" as="geometry" />
        </mxCell>
        <mxCell id="M-Kk_DBBXMK0dHsBA82f-30" style="edgeStyle=orthogonalEdgeStyle;rounded=0;orthogonalLoop=1;jettySize=auto;html=1;entryX=0.5;entryY=0;entryDx=0;entryDy=0;endArrow=none;endFill=0;" parent="1" source="u0Waulj6cbrL7kYw__7z-35" target="u0Waulj6cbrL7kYw__7z-29" edge="1">
          <mxGeometry relative="1" as="geometry" />
        </mxCell>
        <mxCell id="u0Waulj6cbrL7kYw__7z-35" value="&lt;span style=&quot;font-weight: normal;&quot;&gt;&lt;u&gt;cnpj&lt;/u&gt;&lt;br&gt;&lt;/span&gt;" style="ellipse;whiteSpace=wrap;html=1;fontStyle=1" parent="1" vertex="1">
          <mxGeometry x="-410" y="-550" width="55" height="40" as="geometry" />
        </mxCell>
        <mxCell id="M-Kk_DBBXMK0dHsBA82f-1" value="&lt;font style=&quot;font-size: 18px;&quot;&gt;compra&lt;/font&gt;" style="rounded=0;whiteSpace=wrap;html=1;" parent="1" vertex="1">
          <mxGeometry x="210" y="-980" width="120" height="50" as="geometry" />
        </mxCell>
        <mxCell id="M-Kk_DBBXMK0dHsBA82f-48" style="edgeStyle=orthogonalEdgeStyle;rounded=0;orthogonalLoop=1;jettySize=auto;html=1;entryX=0.899;entryY=1;entryDx=0;entryDy=0;entryPerimeter=0;endArrow=none;endFill=0;" parent="1" source="M-Kk_DBBXMK0dHsBA82f-4" target="M-Kk_DBBXMK0dHsBA82f-1" edge="1">
          <mxGeometry relative="1" as="geometry" />
        </mxCell>
        <mxCell id="M-Kk_DBBXMK0dHsBA82f-4" value="forma_pagamento" style="ellipse;whiteSpace=wrap;html=1;" parent="1" vertex="1">
          <mxGeometry x="340" y="-920" width="120" height="40" as="geometry" />
        </mxCell>
        <mxCell id="M-Kk_DBBXMK0dHsBA82f-49" style="edgeStyle=orthogonalEdgeStyle;rounded=0;orthogonalLoop=1;jettySize=auto;html=1;entryX=1;entryY=0.5;entryDx=0;entryDy=0;endArrow=none;endFill=0;" parent="1" source="M-Kk_DBBXMK0dHsBA82f-5" target="M-Kk_DBBXMK0dHsBA82f-1" edge="1">
          <mxGeometry relative="1" as="geometry" />
        </mxCell>
        <mxCell id="M-Kk_DBBXMK0dHsBA82f-5" value="&lt;span style=&quot;font-weight: normal;&quot;&gt;valor&lt;/span&gt;" style="ellipse;whiteSpace=wrap;html=1;fontStyle=1" parent="1" vertex="1">
          <mxGeometry x="350" y="-980" width="80" height="40" as="geometry" />
        </mxCell>
        <mxCell id="M-Kk_DBBXMK0dHsBA82f-51" style="edgeStyle=orthogonalEdgeStyle;rounded=0;orthogonalLoop=1;jettySize=auto;html=1;entryX=0.939;entryY=-0.004;entryDx=0;entryDy=0;entryPerimeter=0;endArrow=none;endFill=0;" parent="1" source="M-Kk_DBBXMK0dHsBA82f-6" target="M-Kk_DBBXMK0dHsBA82f-1" edge="1">
          <mxGeometry relative="1" as="geometry" />
        </mxCell>
        <mxCell id="M-Kk_DBBXMK0dHsBA82f-6" value="&lt;span style=&quot;font-weight: normal;&quot;&gt;data&lt;/span&gt;" style="ellipse;whiteSpace=wrap;html=1;fontStyle=1" parent="1" vertex="1">
          <mxGeometry x="350" y="-1030" width="70" height="40" as="geometry" />
        </mxCell>
        <mxCell id="qwGrxkF3Ybjj59Ug6xA2-3" style="edgeStyle=orthogonalEdgeStyle;rounded=0;orthogonalLoop=1;jettySize=auto;html=1;entryX=0;entryY=0.5;entryDx=0;entryDy=0;endArrow=none;endFill=0;" parent="1" source="M-Kk_DBBXMK0dHsBA82f-12" target="u0Waulj6cbrL7kYw__7z-16" edge="1">
          <mxGeometry relative="1" as="geometry" />
        </mxCell>
        <mxCell id="M-Kk_DBBXMK0dHsBA82f-12" value="&lt;span style=&quot;font-weight: normal;&quot;&gt;&lt;u&gt;id&lt;/u&gt;&lt;/span&gt;" style="ellipse;whiteSpace=wrap;html=1;fontStyle=1" parent="1" vertex="1">
          <mxGeometry x="210" y="-620" width="60" height="40" as="geometry" />
        </mxCell>
        <mxCell id="M-Kk_DBBXMK0dHsBA82f-28" style="edgeStyle=orthogonalEdgeStyle;rounded=0;orthogonalLoop=1;jettySize=auto;html=1;entryX=0.639;entryY=0.017;entryDx=0;entryDy=0;entryPerimeter=0;endArrow=none;endFill=0;" parent="1" source="M-Kk_DBBXMK0dHsBA82f-15" target="u0Waulj6cbrL7kYw__7z-2" edge="1">
          <mxGeometry relative="1" as="geometry">
            <Array as="points">
              <mxPoint x="-335" y="-1010" />
              <mxPoint x="-373" y="-1010" />
            </Array>
          </mxGeometry>
        </mxCell>
        <mxCell id="M-Kk_DBBXMK0dHsBA82f-15" value="&lt;span style=&quot;font-weight: normal;&quot;&gt;&lt;u&gt;id&lt;/u&gt;&lt;/span&gt;" style="ellipse;whiteSpace=wrap;html=1;fontStyle=1" parent="1" vertex="1">
          <mxGeometry x="-300" y="-1030" width="60" height="40" as="geometry" />
        </mxCell>
        <mxCell id="M-Kk_DBBXMK0dHsBA82f-19" value="&lt;span style=&quot;font-weight: 400;&quot;&gt;&lt;u&gt;id&lt;/u&gt;&lt;/span&gt;" style="ellipse;whiteSpace=wrap;html=1;fontStyle=1" parent="1" vertex="1">
          <mxGeometry x="235" y="-1040" width="70" height="40" as="geometry" />
        </mxCell>
        <mxCell id="M-Kk_DBBXMK0dHsBA82f-41" style="edgeStyle=orthogonalEdgeStyle;rounded=0;orthogonalLoop=1;jettySize=auto;html=1;endArrow=ERmany;endFill=0;" parent="1" source="M-Kk_DBBXMK0dHsBA82f-22" edge="1">
          <mxGeometry relative="1" as="geometry">
            <mxPoint x="210" y="-940" as="targetPoint" />
            <Array as="points">
              <mxPoint x="160" y="-940" />
              <mxPoint x="210" y="-940" />
            </Array>
          </mxGeometry>
        </mxCell>
        <mxCell id="qwGrxkF3Ybjj59Ug6xA2-5" style="edgeStyle=orthogonalEdgeStyle;rounded=0;orthogonalLoop=1;jettySize=auto;html=1;entryX=0.5;entryY=0;entryDx=0;entryDy=0;endArrow=none;endFill=0;" parent="1" source="M-Kk_DBBXMK0dHsBA82f-22" target="u0Waulj6cbrL7kYw__7z-16" edge="1">
          <mxGeometry relative="1" as="geometry">
            <Array as="points">
              <mxPoint x="160" y="-670" />
              <mxPoint x="305" y="-670" />
            </Array>
          </mxGeometry>
        </mxCell>
        <mxCell id="M-Kk_DBBXMK0dHsBA82f-22" value="cliente_compra" style="shape=rhombus;perimeter=rhombusPerimeter;whiteSpace=wrap;html=1;align=center;" parent="1" vertex="1">
          <mxGeometry x="100" y="-790" width="120" height="60" as="geometry" />
        </mxCell>
        <mxCell id="M-Kk_DBBXMK0dHsBA82f-40" style="edgeStyle=orthogonalEdgeStyle;rounded=0;orthogonalLoop=1;jettySize=auto;html=1;entryX=1;entryY=0.5;entryDx=0;entryDy=0;endArrow=none;endFill=0;" parent="1" source="M-Kk_DBBXMK0dHsBA82f-39" target="u0Waulj6cbrL7kYw__7z-29" edge="1">
          <mxGeometry relative="1" as="geometry" />
        </mxCell>
        <mxCell id="M-Kk_DBBXMK0dHsBA82f-39" value="id" style="ellipse;whiteSpace=wrap;html=1;align=center;fontStyle=4;" parent="1" vertex="1">
          <mxGeometry x="-305" y="-550" width="65" height="40" as="geometry" />
        </mxCell>
        <mxCell id="M-Kk_DBBXMK0dHsBA82f-46" style="edgeStyle=orthogonalEdgeStyle;rounded=0;orthogonalLoop=1;jettySize=auto;html=1;exitX=0;exitY=0.5;exitDx=0;exitDy=0;entryX=1;entryY=0.5;entryDx=0;entryDy=0;endArrow=none;endFill=0;" parent="1" source="M-Kk_DBBXMK0dHsBA82f-44" target="M-Kk_DBBXMK0dHsBA82f-22" edge="1">
          <mxGeometry relative="1" as="geometry">
            <Array as="points">
              <mxPoint x="240" y="-790" />
              <mxPoint x="240" y="-760" />
            </Array>
          </mxGeometry>
        </mxCell>
        <mxCell id="M-Kk_DBBXMK0dHsBA82f-44" value="id_cliente" style="ellipse;whiteSpace=wrap;html=1;align=center;" parent="1" vertex="1">
          <mxGeometry x="270" y="-810" width="80" height="40" as="geometry" />
        </mxCell>
        <mxCell id="M-Kk_DBBXMK0dHsBA82f-47" style="edgeStyle=orthogonalEdgeStyle;rounded=0;orthogonalLoop=1;jettySize=auto;html=1;endArrow=none;endFill=0;" parent="1" source="M-Kk_DBBXMK0dHsBA82f-45" edge="1">
          <mxGeometry relative="1" as="geometry">
            <mxPoint x="220" y="-760" as="targetPoint" />
            <Array as="points">
              <mxPoint x="240" y="-730" />
              <mxPoint x="240" y="-760" />
            </Array>
          </mxGeometry>
        </mxCell>
        <mxCell id="M-Kk_DBBXMK0dHsBA82f-45" value="id_compra" style="ellipse;whiteSpace=wrap;html=1;align=center;" parent="1" vertex="1">
          <mxGeometry x="270" y="-750" width="80" height="40" as="geometry" />
        </mxCell>
        <mxCell id="M-Kk_DBBXMK0dHsBA82f-53" value="" style="endArrow=none;html=1;rounded=0;exitX=0.5;exitY=1;exitDx=0;exitDy=0;entryX=0.5;entryY=0;entryDx=0;entryDy=0;" parent="1" source="M-Kk_DBBXMK0dHsBA82f-19" target="M-Kk_DBBXMK0dHsBA82f-1" edge="1">
          <mxGeometry relative="1" as="geometry">
            <mxPoint x="130" y="-980" as="sourcePoint" />
            <mxPoint x="290" y="-980" as="targetPoint" />
          </mxGeometry>
        </mxCell>
        <mxCell id="M-Kk_DBBXMK0dHsBA82f-59" style="edgeStyle=orthogonalEdgeStyle;rounded=0;orthogonalLoop=1;jettySize=auto;html=1;entryX=1;entryY=0.5;entryDx=0;entryDy=0;endArrow=ERmany;endFill=0;exitX=0;exitY=0.5;exitDx=0;exitDy=0;" parent="1" source="M-Kk_DBBXMK0dHsBA82f-128" target="u0Waulj6cbrL7kYw__7z-2" edge="1">
          <mxGeometry relative="1" as="geometry">
            <mxPoint x="-109.94285714285729" y="-1029.9714285714285" as="sourcePoint" />
          </mxGeometry>
        </mxCell>
        <mxCell id="M-Kk_DBBXMK0dHsBA82f-60" style="edgeStyle=orthogonalEdgeStyle;rounded=0;orthogonalLoop=1;jettySize=auto;html=1;entryX=0;entryY=0.25;entryDx=0;entryDy=0;endArrow=ERmany;endFill=0;exitX=1;exitY=0.5;exitDx=0;exitDy=0;" parent="1" source="M-Kk_DBBXMK0dHsBA82f-128" target="M-Kk_DBBXMK0dHsBA82f-1" edge="1">
          <mxGeometry relative="1" as="geometry">
            <mxPoint x="9.942857142857292" y="-1029.9714285714285" as="sourcePoint" />
          </mxGeometry>
        </mxCell>
        <mxCell id="M-Kk_DBBXMK0dHsBA82f-69" value="" style="edgeStyle=orthogonalEdgeStyle;rounded=0;orthogonalLoop=1;jettySize=auto;html=1;endArrow=none;endFill=0;" parent="1" source="M-Kk_DBBXMK0dHsBA82f-63" edge="1">
          <mxGeometry relative="1" as="geometry">
            <mxPoint x="-49.956521739130494" y="-1000.0217391304348" as="targetPoint" />
          </mxGeometry>
        </mxCell>
        <mxCell id="M-Kk_DBBXMK0dHsBA82f-63" value="id_compra" style="ellipse;whiteSpace=wrap;html=1;align=center;" parent="1" vertex="1">
          <mxGeometry x="-30" y="-990" width="100" height="40" as="geometry" />
        </mxCell>
        <mxCell id="M-Kk_DBBXMK0dHsBA82f-68" style="edgeStyle=orthogonalEdgeStyle;rounded=0;orthogonalLoop=1;jettySize=auto;html=1;entryX=0.5;entryY=1;entryDx=0;entryDy=0;endArrow=none;endFill=0;" parent="1" source="M-Kk_DBBXMK0dHsBA82f-64" target="M-Kk_DBBXMK0dHsBA82f-128" edge="1">
          <mxGeometry relative="1" as="geometry">
            <mxPoint x="-50" y="-1000" as="targetPoint" />
          </mxGeometry>
        </mxCell>
        <mxCell id="M-Kk_DBBXMK0dHsBA82f-64" value="id_produto" style="ellipse;whiteSpace=wrap;html=1;align=center;" parent="1" vertex="1">
          <mxGeometry x="-160" y="-990" width="100" height="40" as="geometry" />
        </mxCell>
        <mxCell id="M-Kk_DBBXMK0dHsBA82f-72" style="edgeStyle=orthogonalEdgeStyle;rounded=0;orthogonalLoop=1;jettySize=auto;html=1;endArrow=none;endFill=0;" parent="1" source="M-Kk_DBBXMK0dHsBA82f-71" edge="1">
          <mxGeometry relative="1" as="geometry">
            <mxPoint x="-50" y="-970" as="targetPoint" />
          </mxGeometry>
        </mxCell>
        <mxCell id="M-Kk_DBBXMK0dHsBA82f-71" value="quantidade" style="ellipse;whiteSpace=wrap;html=1;align=center;" parent="1" vertex="1">
          <mxGeometry x="-100" y="-940" width="100" height="40" as="geometry" />
        </mxCell>
        <mxCell id="M-Kk_DBBXMK0dHsBA82f-88" value="&lt;font style=&quot;font-size: 18px;&quot;&gt;endereco&lt;/font&gt;" style="whiteSpace=wrap;html=1;align=center;" parent="1" vertex="1">
          <mxGeometry x="-95" y="-240" width="90" height="40" as="geometry" />
        </mxCell>
        <mxCell id="M-Kk_DBBXMK0dHsBA82f-103" value="" style="edgeStyle=orthogonalEdgeStyle;rounded=0;orthogonalLoop=1;jettySize=auto;html=1;endArrow=none;endFill=0;" parent="1" source="M-Kk_DBBXMK0dHsBA82f-95" target="M-Kk_DBBXMK0dHsBA82f-88" edge="1">
          <mxGeometry relative="1" as="geometry" />
        </mxCell>
        <mxCell id="M-Kk_DBBXMK0dHsBA82f-95" value="logradouro" style="ellipse;whiteSpace=wrap;html=1;align=center;" parent="1" vertex="1">
          <mxGeometry x="-145" y="-160" width="75" height="40" as="geometry" />
        </mxCell>
        <mxCell id="M-Kk_DBBXMK0dHsBA82f-107" style="edgeStyle=orthogonalEdgeStyle;rounded=0;orthogonalLoop=1;jettySize=auto;html=1;entryX=1;entryY=0.25;entryDx=0;entryDy=0;endArrow=none;endFill=0;" parent="1" source="M-Kk_DBBXMK0dHsBA82f-96" target="M-Kk_DBBXMK0dHsBA82f-88" edge="1">
          <mxGeometry relative="1" as="geometry" />
        </mxCell>
        <mxCell id="M-Kk_DBBXMK0dHsBA82f-96" value="cep" style="ellipse;whiteSpace=wrap;html=1;align=center;" parent="1" vertex="1">
          <mxGeometry x="55" y="-270" width="65" height="40" as="geometry" />
        </mxCell>
        <mxCell id="M-Kk_DBBXMK0dHsBA82f-105" style="edgeStyle=orthogonalEdgeStyle;rounded=0;orthogonalLoop=1;jettySize=auto;html=1;entryX=0.75;entryY=1;entryDx=0;entryDy=0;endArrow=none;endFill=0;" parent="1" source="M-Kk_DBBXMK0dHsBA82f-97" target="M-Kk_DBBXMK0dHsBA82f-88" edge="1">
          <mxGeometry relative="1" as="geometry" />
        </mxCell>
        <mxCell id="M-Kk_DBBXMK0dHsBA82f-97" value="numero" style="ellipse;whiteSpace=wrap;html=1;align=center;" parent="1" vertex="1">
          <mxGeometry x="-25" y="-160" width="75" height="40" as="geometry" />
        </mxCell>
        <mxCell id="M-Kk_DBBXMK0dHsBA82f-109" style="edgeStyle=orthogonalEdgeStyle;rounded=0;orthogonalLoop=1;jettySize=auto;html=1;entryX=0.861;entryY=-0.01;entryDx=0;entryDy=0;entryPerimeter=0;endArrow=none;endFill=0;" parent="1" source="M-Kk_DBBXMK0dHsBA82f-98" target="M-Kk_DBBXMK0dHsBA82f-88" edge="1">
          <mxGeometry relative="1" as="geometry" />
        </mxCell>
        <mxCell id="M-Kk_DBBXMK0dHsBA82f-98" value="cidade" style="ellipse;whiteSpace=wrap;html=1;align=center;" parent="1" vertex="1">
          <mxGeometry x="-15" y="-320" width="65" height="40" as="geometry" />
        </mxCell>
        <mxCell id="M-Kk_DBBXMK0dHsBA82f-110" value="" style="edgeStyle=orthogonalEdgeStyle;rounded=0;orthogonalLoop=1;jettySize=auto;html=1;endArrow=none;endFill=0;" parent="1" source="M-Kk_DBBXMK0dHsBA82f-99" target="M-Kk_DBBXMK0dHsBA82f-88" edge="1">
          <mxGeometry relative="1" as="geometry" />
        </mxCell>
        <mxCell id="M-Kk_DBBXMK0dHsBA82f-99" value="estado" style="ellipse;whiteSpace=wrap;html=1;align=center;" parent="1" vertex="1">
          <mxGeometry x="-145" y="-320" width="75" height="40" as="geometry" />
        </mxCell>
        <mxCell id="M-Kk_DBBXMK0dHsBA82f-106" style="edgeStyle=orthogonalEdgeStyle;rounded=0;orthogonalLoop=1;jettySize=auto;html=1;entryX=1;entryY=0.75;entryDx=0;entryDy=0;endArrow=none;endFill=0;" parent="1" source="M-Kk_DBBXMK0dHsBA82f-100" target="M-Kk_DBBXMK0dHsBA82f-88" edge="1">
          <mxGeometry relative="1" as="geometry" />
        </mxCell>
        <mxCell id="M-Kk_DBBXMK0dHsBA82f-100" value="bairro" style="ellipse;whiteSpace=wrap;html=1;align=center;" parent="1" vertex="1">
          <mxGeometry x="55" y="-210" width="75" height="40" as="geometry" />
        </mxCell>
        <mxCell id="M-Kk_DBBXMK0dHsBA82f-112" value="" style="edgeStyle=orthogonalEdgeStyle;rounded=0;orthogonalLoop=1;jettySize=auto;html=1;endArrow=none;endFill=0;" parent="1" source="M-Kk_DBBXMK0dHsBA82f-111" target="M-Kk_DBBXMK0dHsBA82f-88" edge="1">
          <mxGeometry relative="1" as="geometry" />
        </mxCell>
        <mxCell id="M-Kk_DBBXMK0dHsBA82f-111" value="&lt;u&gt;id&lt;/u&gt;" style="ellipse;whiteSpace=wrap;html=1;align=center;" parent="1" vertex="1">
          <mxGeometry x="-210" y="-280" width="70" height="40" as="geometry" />
        </mxCell>
        <mxCell id="M-Kk_DBBXMK0dHsBA82f-135" value="" style="edgeStyle=orthogonalEdgeStyle;rounded=0;orthogonalLoop=1;jettySize=auto;html=1;endArrow=none;endFill=0;" parent="1" source="M-Kk_DBBXMK0dHsBA82f-118" target="M-Kk_DBBXMK0dHsBA82f-130" edge="1">
          <mxGeometry relative="1" as="geometry" />
        </mxCell>
        <mxCell id="M-Kk_DBBXMK0dHsBA82f-118" value="id_cliente" style="ellipse;whiteSpace=wrap;html=1;align=center;" parent="1" vertex="1">
          <mxGeometry x="210" y="-320" width="70" height="30" as="geometry" />
        </mxCell>
        <mxCell id="M-Kk_DBBXMK0dHsBA82f-136" value="" style="edgeStyle=orthogonalEdgeStyle;rounded=0;orthogonalLoop=1;jettySize=auto;html=1;endArrow=none;endFill=0;" parent="1" source="M-Kk_DBBXMK0dHsBA82f-120" target="M-Kk_DBBXMK0dHsBA82f-130" edge="1">
          <mxGeometry relative="1" as="geometry" />
        </mxCell>
        <mxCell id="M-Kk_DBBXMK0dHsBA82f-120" value="id_endereco" style="ellipse;whiteSpace=wrap;html=1;align=center;" parent="1" vertex="1">
          <mxGeometry x="315" y="-320" width="85" height="30" as="geometry" />
        </mxCell>
        <mxCell id="M-Kk_DBBXMK0dHsBA82f-124" value="" style="edgeStyle=orthogonalEdgeStyle;rounded=0;orthogonalLoop=1;jettySize=auto;html=1;entryX=1.01;entryY=0.808;entryDx=0;entryDy=0;entryPerimeter=0;endArrow=none;endFill=0;" parent="1" source="M-Kk_DBBXMK0dHsBA82f-122" target="u0Waulj6cbrL7kYw__7z-2" edge="1">
          <mxGeometry relative="1" as="geometry" />
        </mxCell>
        <mxCell id="M-Kk_DBBXMK0dHsBA82f-122" value="validade" style="ellipse;whiteSpace=wrap;html=1;" parent="1" vertex="1">
          <mxGeometry x="-300" y="-950" width="80" height="40" as="geometry" />
        </mxCell>
        <mxCell id="M-Kk_DBBXMK0dHsBA82f-127" value="" style="edgeStyle=orthogonalEdgeStyle;rounded=0;orthogonalLoop=1;jettySize=auto;html=1;endArrow=none;endFill=0;" parent="1" source="M-Kk_DBBXMK0dHsBA82f-126" target="u0Waulj6cbrL7kYw__7z-2" edge="1">
          <mxGeometry relative="1" as="geometry" />
        </mxCell>
        <mxCell id="M-Kk_DBBXMK0dHsBA82f-126" value="&lt;span style=&quot;font-weight: normal;&quot;&gt;id_fornecedor&lt;/span&gt;" style="ellipse;whiteSpace=wrap;html=1;fontStyle=1" parent="1" vertex="1">
          <mxGeometry x="-390" y="-1080" width="80" height="40" as="geometry" />
        </mxCell>
        <mxCell id="M-Kk_DBBXMK0dHsBA82f-128" value="compra_produto" style="shape=rhombus;perimeter=rhombusPerimeter;whiteSpace=wrap;html=1;align=center;" parent="1" vertex="1">
          <mxGeometry x="-110" y="-1070" width="120" height="60" as="geometry" />
        </mxCell>
        <mxCell id="qwGrxkF3Ybjj59Ug6xA2-1" style="edgeStyle=orthogonalEdgeStyle;rounded=0;orthogonalLoop=1;jettySize=auto;html=1;entryX=1;entryY=0.5;entryDx=0;entryDy=0;endArrow=ERmany;endFill=0;" parent="1" source="M-Kk_DBBXMK0dHsBA82f-130" target="M-Kk_DBBXMK0dHsBA82f-88" edge="1">
          <mxGeometry relative="1" as="geometry">
            <Array as="points">
              <mxPoint x="180" y="-400" />
              <mxPoint x="180" y="-220" />
            </Array>
          </mxGeometry>
        </mxCell>
        <mxCell id="qwGrxkF3Ybjj59Ug6xA2-2" style="edgeStyle=orthogonalEdgeStyle;rounded=0;orthogonalLoop=1;jettySize=auto;html=1;entryX=0.5;entryY=1;entryDx=0;entryDy=0;endArrow=ERmany;endFill=0;" parent="1" source="M-Kk_DBBXMK0dHsBA82f-130" target="u0Waulj6cbrL7kYw__7z-16" edge="1">
          <mxGeometry relative="1" as="geometry" />
        </mxCell>
        <mxCell id="M-Kk_DBBXMK0dHsBA82f-130" value="cliente_endereco" style="shape=rhombus;perimeter=rhombusPerimeter;whiteSpace=wrap;html=1;align=center;" parent="1" vertex="1">
          <mxGeometry x="245" y="-430" width="120" height="60" as="geometry" />
        </mxCell>
        <mxCell id="M-Kk_DBBXMK0dHsBA82f-139" style="edgeStyle=orthogonalEdgeStyle;rounded=0;orthogonalLoop=1;jettySize=auto;html=1;endArrow=ERmany;endFill=0;" parent="1" source="M-Kk_DBBXMK0dHsBA82f-137" edge="1">
          <mxGeometry relative="1" as="geometry">
            <mxPoint x="-390" y="-940" as="targetPoint" />
          </mxGeometry>
        </mxCell>
        <mxCell id="M-Kk_DBBXMK0dHsBA82f-143" style="edgeStyle=orthogonalEdgeStyle;rounded=0;orthogonalLoop=1;jettySize=auto;html=1;entryX=0.805;entryY=0.003;entryDx=0;entryDy=0;entryPerimeter=0;endArrow=ERmany;endFill=0;" parent="1" source="M-Kk_DBBXMK0dHsBA82f-137" target="u0Waulj6cbrL7kYw__7z-29" edge="1">
          <mxGeometry relative="1" as="geometry">
            <Array as="points">
              <mxPoint x="-323" y="-580" />
              <mxPoint x="-323" y="-580" />
            </Array>
          </mxGeometry>
        </mxCell>
        <mxCell id="M-Kk_DBBXMK0dHsBA82f-137" value="fornecedor_produto" style="shape=rhombus;perimeter=rhombusPerimeter;whiteSpace=wrap;html=1;align=center;" parent="1" vertex="1">
          <mxGeometry x="-410" y="-740" width="170" height="60" as="geometry" />
        </mxCell>
        <mxCell id="M-Kk_DBBXMK0dHsBA82f-145" value="" style="edgeStyle=orthogonalEdgeStyle;rounded=0;orthogonalLoop=1;jettySize=auto;html=1;endArrow=none;endFill=0;" parent="1" source="M-Kk_DBBXMK0dHsBA82f-144" target="M-Kk_DBBXMK0dHsBA82f-137" edge="1">
          <mxGeometry relative="1" as="geometry" />
        </mxCell>
        <mxCell id="M-Kk_DBBXMK0dHsBA82f-144" value="id_produto" style="ellipse;whiteSpace=wrap;html=1;align=center;" parent="1" vertex="1">
          <mxGeometry x="-585" y="-760" width="100" height="40" as="geometry" />
        </mxCell>
        <mxCell id="M-Kk_DBBXMK0dHsBA82f-147" value="" style="edgeStyle=orthogonalEdgeStyle;rounded=0;orthogonalLoop=1;jettySize=auto;html=1;endArrow=none;endFill=0;" parent="1" source="M-Kk_DBBXMK0dHsBA82f-146" target="M-Kk_DBBXMK0dHsBA82f-137" edge="1">
          <mxGeometry relative="1" as="geometry" />
        </mxCell>
        <mxCell id="M-Kk_DBBXMK0dHsBA82f-146" value="id_fornecedor" style="ellipse;whiteSpace=wrap;html=1;align=center;" parent="1" vertex="1">
          <mxGeometry x="-700" y="-730" width="100" height="40" as="geometry" />
        </mxCell>
        <mxCell id="M-Kk_DBBXMK0dHsBA82f-153" value="" style="edgeStyle=orthogonalEdgeStyle;rounded=0;orthogonalLoop=1;jettySize=auto;html=1;endArrow=none;endFill=0;" parent="1" source="M-Kk_DBBXMK0dHsBA82f-148" target="M-Kk_DBBXMK0dHsBA82f-137" edge="1">
          <mxGeometry relative="1" as="geometry" />
        </mxCell>
        <mxCell id="M-Kk_DBBXMK0dHsBA82f-148" value="quantidade_fornecida" style="ellipse;whiteSpace=wrap;html=1;align=center;" parent="1" vertex="1">
          <mxGeometry x="-565" y="-700" width="130" height="40" as="geometry" />
        </mxCell>
        <mxCell id="M-Kk_DBBXMK0dHsBA82f-155" value="" style="edgeStyle=orthogonalEdgeStyle;rounded=0;orthogonalLoop=1;jettySize=auto;html=1;endArrow=none;endFill=0;" parent="1" source="M-Kk_DBBXMK0dHsBA82f-154" edge="1">
          <mxGeometry relative="1" as="geometry">
            <mxPoint x="-420" y="-680" as="targetPoint" />
          </mxGeometry>
        </mxCell>
        <mxCell id="M-Kk_DBBXMK0dHsBA82f-154" value="data_fornecimento" style="ellipse;whiteSpace=wrap;html=1;align=center;" parent="1" vertex="1">
          <mxGeometry x="-460" y="-660" width="120" height="40" as="geometry" />
        </mxCell>
        <mxCell id="M-Kk_DBBXMK0dHsBA82f-157" value="" style="edgeStyle=orthogonalEdgeStyle;rounded=0;orthogonalLoop=1;jettySize=auto;html=1;endArrow=none;endFill=0;" parent="1" source="M-Kk_DBBXMK0dHsBA82f-156" edge="1">
          <mxGeometry relative="1" as="geometry">
            <mxPoint x="-570" y="-710" as="targetPoint" />
          </mxGeometry>
        </mxCell>
        <mxCell id="M-Kk_DBBXMK0dHsBA82f-156" value="numero_pedido" style="ellipse;whiteSpace=wrap;html=1;align=center;" parent="1" vertex="1">
          <mxGeometry x="-640" y="-670" width="100" height="40" as="geometry" />
        </mxCell>
        <mxCell id="qwGrxkF3Ybjj59Ug6xA2-8" style="edgeStyle=orthogonalEdgeStyle;rounded=0;orthogonalLoop=1;jettySize=auto;html=1;entryX=0.586;entryY=0.968;entryDx=0;entryDy=0;entryPerimeter=0;endArrow=none;endFill=0;" parent="1" edge="1">
          <mxGeometry relative="1" as="geometry">
            <mxPoint x="-350.4299999999999" y="-248.08" as="sourcePoint" />
            <mxPoint x="-350.11000000000007" y="-420.00000000000006" as="targetPoint" />
          </mxGeometry>
        </mxCell>
        <mxCell id="qwGrxkF3Ybjj59Ug6xA2-9" style="edgeStyle=orthogonalEdgeStyle;rounded=0;orthogonalLoop=1;jettySize=auto;html=1;entryX=0;entryY=0.75;entryDx=0;entryDy=0;endArrow=none;endFill=0;" parent="1" source="qwGrxkF3Ybjj59Ug6xA2-7" target="M-Kk_DBBXMK0dHsBA82f-88" edge="1">
          <mxGeometry relative="1" as="geometry" />
        </mxCell>
        <mxCell id="qwGrxkF3Ybjj59Ug6xA2-7" value="Possui" style="shape=rhombus;perimeter=rhombusPerimeter;whiteSpace=wrap;html=1;align=center;" parent="1" vertex="1">
          <mxGeometry x="-410" y="-250" width="120" height="60" as="geometry" />
        </mxCell>
        <mxCell id="qwGrxkF3Ybjj59Ug6xA2-13" style="edgeStyle=orthogonalEdgeStyle;rounded=0;orthogonalLoop=1;jettySize=auto;html=1;endArrow=none;endFill=0;" parent="1" source="qwGrxkF3Ybjj59Ug6xA2-12" edge="1">
          <mxGeometry relative="1" as="geometry">
            <mxPoint x="-300" y="-450" as="targetPoint" />
            <Array as="points">
              <mxPoint x="-255" y="-490" />
              <mxPoint x="-255" y="-450" />
              <mxPoint x="-300" y="-450" />
            </Array>
          </mxGeometry>
        </mxCell>
        <mxCell id="qwGrxkF3Ybjj59Ug6xA2-12" value="id_endereco" style="ellipse;whiteSpace=wrap;html=1;align=center;" parent="1" vertex="1">
          <mxGeometry x="-240" y="-510" width="90" height="40" as="geometry" />
        </mxCell>
        <mxCell id="qwGrxkF3Ybjj59Ug6xA2-19" style="edgeStyle=orthogonalEdgeStyle;rounded=0;orthogonalLoop=1;jettySize=auto;html=1;entryX=1.003;entryY=0.698;entryDx=0;entryDy=0;entryPerimeter=0;endArrow=none;endFill=0;" parent="1" source="qwGrxkF3Ybjj59Ug6xA2-16" target="u0Waulj6cbrL7kYw__7z-16" edge="1">
          <mxGeometry relative="1" as="geometry" />
        </mxCell>
        <mxCell id="qwGrxkF3Ybjj59Ug6xA2-16" value="&lt;span style=&quot;font-weight: normal;&quot;&gt;data_cadastro&lt;/span&gt;" style="ellipse;whiteSpace=wrap;html=1;fontStyle=1" parent="1" vertex="1">
          <mxGeometry x="385" y="-540" width="90" height="40" as="geometry" />
        </mxCell>
        <mxCell id="qwGrxkF3Ybjj59Ug6xA2-23" style="edgeStyle=orthogonalEdgeStyle;rounded=0;orthogonalLoop=1;jettySize=auto;html=1;entryX=1;entryY=0.5;entryDx=0;entryDy=0;endArrow=none;endFill=0;" parent="1" source="qwGrxkF3Ybjj59Ug6xA2-20" target="qwGrxkF3Ybjj59Ug6xA2-22" edge="1">
          <mxGeometry relative="1" as="geometry">
            <Array as="points">
              <mxPoint x="460" y="-140" />
              <mxPoint x="460" y="-140" />
            </Array>
          </mxGeometry>
        </mxCell>
        <mxCell id="qwGrxkF3Ybjj59Ug6xA2-20" value="Empregado" style="whiteSpace=wrap;html=1;align=center;" parent="1" vertex="1">
          <mxGeometry x="475" y="-160" width="100" height="40" as="geometry" />
        </mxCell>
        <mxCell id="qwGrxkF3Ybjj59Ug6xA2-24" style="edgeStyle=orthogonalEdgeStyle;rounded=0;orthogonalLoop=1;jettySize=auto;html=1;endArrow=none;endFill=0;entryX=0.598;entryY=0.997;entryDx=0;entryDy=0;entryPerimeter=0;" parent="1" source="qwGrxkF3Ybjj59Ug6xA2-22" target="M-Kk_DBBXMK0dHsBA82f-88" edge="1">
          <mxGeometry relative="1" as="geometry">
            <mxPoint x="-41" y="-198" as="targetPoint" />
            <Array as="points">
              <mxPoint x="318" y="-100" />
              <mxPoint x="-41" y="-100" />
            </Array>
          </mxGeometry>
        </mxCell>
        <mxCell id="qwGrxkF3Ybjj59Ug6xA2-22" value="Possui" style="shape=rhombus;perimeter=rhombusPerimeter;whiteSpace=wrap;html=1;align=center;" parent="1" vertex="1">
          <mxGeometry x="265" y="-170" width="105" height="60" as="geometry" />
        </mxCell>
        <mxCell id="qwGrxkF3Ybjj59Ug6xA2-31" style="edgeStyle=orthogonalEdgeStyle;rounded=0;orthogonalLoop=1;jettySize=auto;html=1;entryX=0;entryY=0.75;entryDx=0;entryDy=0;endArrow=none;endFill=0;" parent="1" source="qwGrxkF3Ybjj59Ug6xA2-25" target="qwGrxkF3Ybjj59Ug6xA2-20" edge="1">
          <mxGeometry relative="1" as="geometry" />
        </mxCell>
        <mxCell id="qwGrxkF3Ybjj59Ug6xA2-25" value="id_endereco" style="ellipse;whiteSpace=wrap;html=1;align=center;" parent="1" vertex="1">
          <mxGeometry x="370" y="-120" width="80" height="25" as="geometry" />
        </mxCell>
        <mxCell id="qwGrxkF3Ybjj59Ug6xA2-32" style="edgeStyle=orthogonalEdgeStyle;rounded=0;orthogonalLoop=1;jettySize=auto;html=1;entryX=0.65;entryY=1;entryDx=0;entryDy=0;entryPerimeter=0;endArrow=none;endFill=0;" parent="1" edge="1">
          <mxGeometry relative="1" as="geometry">
            <mxPoint x="530" y="-94.14213562373084" as="sourcePoint" />
            <mxPoint x="550" y="-120" as="targetPoint" />
            <Array as="points">
              <mxPoint x="530" y="-110" />
              <mxPoint x="530" y="-110" />
            </Array>
          </mxGeometry>
        </mxCell>
        <mxCell id="qwGrxkF3Ybjj59Ug6xA2-26" value="data_adm" style="ellipse;whiteSpace=wrap;html=1;align=center;" parent="1" vertex="1">
          <mxGeometry x="495" y="-95" width="60" height="30" as="geometry" />
        </mxCell>
        <mxCell id="fSYFpK1Vkwz873p__v1r-8" style="edgeStyle=orthogonalEdgeStyle;rounded=0;orthogonalLoop=1;jettySize=auto;html=1;entryX=1;entryY=0.519;entryDx=0;entryDy=0;entryPerimeter=0;endArrow=none;endFill=0;exitX=0;exitY=0.5;exitDx=0;exitDy=0;" edge="1" parent="1" source="qwGrxkF3Ybjj59Ug6xA2-27" target="qwGrxkF3Ybjj59Ug6xA2-20">
          <mxGeometry relative="1" as="geometry">
            <Array as="points">
              <mxPoint x="620" y="-165" />
              <mxPoint x="620" y="-150" />
              <mxPoint x="575" y="-150" />
            </Array>
          </mxGeometry>
        </mxCell>
        <mxCell id="qwGrxkF3Ybjj59Ug6xA2-27" value="telefone" style="ellipse;whiteSpace=wrap;html=1;align=center;" parent="1" vertex="1">
          <mxGeometry x="630" y="-180" width="50" height="30" as="geometry" />
        </mxCell>
        <mxCell id="qwGrxkF3Ybjj59Ug6xA2-35" style="edgeStyle=orthogonalEdgeStyle;rounded=0;orthogonalLoop=1;jettySize=auto;html=1;exitX=0;exitY=1;exitDx=0;exitDy=0;entryX=0.973;entryY=-0.004;entryDx=0;entryDy=0;entryPerimeter=0;endArrow=none;endFill=0;" parent="1" source="qwGrxkF3Ybjj59Ug6xA2-28" target="qwGrxkF3Ybjj59Ug6xA2-20" edge="1">
          <mxGeometry relative="1" as="geometry">
            <Array as="points">
              <mxPoint x="590" y="-209" />
              <mxPoint x="590" y="-160" />
            </Array>
          </mxGeometry>
        </mxCell>
        <mxCell id="qwGrxkF3Ybjj59Ug6xA2-28" value="cargo" style="ellipse;whiteSpace=wrap;html=1;align=center;" parent="1" vertex="1">
          <mxGeometry x="590" y="-270" width="50" height="30" as="geometry" />
        </mxCell>
        <mxCell id="qwGrxkF3Ybjj59Ug6xA2-36" style="edgeStyle=orthogonalEdgeStyle;rounded=0;orthogonalLoop=1;jettySize=auto;html=1;exitX=0.5;exitY=1;exitDx=0;exitDy=0;endArrow=none;endFill=0;" parent="1" source="qwGrxkF3Ybjj59Ug6xA2-29" edge="1">
          <mxGeometry relative="1" as="geometry">
            <mxPoint x="546" y="-160" as="targetPoint" />
          </mxGeometry>
        </mxCell>
        <mxCell id="qwGrxkF3Ybjj59Ug6xA2-29" value="nome" style="ellipse;whiteSpace=wrap;html=1;align=center;" parent="1" vertex="1">
          <mxGeometry x="532.5" y="-265" width="50" height="30" as="geometry" />
        </mxCell>
        <mxCell id="qwGrxkF3Ybjj59Ug6xA2-34" style="edgeStyle=orthogonalEdgeStyle;rounded=0;orthogonalLoop=1;jettySize=auto;html=1;exitX=0;exitY=0.5;exitDx=0;exitDy=0;entryX=1;entryY=0.5;entryDx=0;entryDy=0;endArrow=none;endFill=0;" parent="1" source="qwGrxkF3Ybjj59Ug6xA2-30" edge="1">
          <mxGeometry relative="1" as="geometry">
            <mxPoint x="635.0000000000023" y="-238.75" as="sourcePoint" />
            <mxPoint x="575" y="-150" as="targetPoint" />
            <Array as="points">
              <mxPoint x="620" y="-229" />
              <mxPoint x="620" y="-150" />
            </Array>
          </mxGeometry>
        </mxCell>
        <mxCell id="qwGrxkF3Ybjj59Ug6xA2-30" value="email" style="ellipse;whiteSpace=wrap;html=1;align=center;" parent="1" vertex="1">
          <mxGeometry x="635" y="-240" width="40" height="22.5" as="geometry" />
        </mxCell>
        <mxCell id="qwGrxkF3Ybjj59Ug6xA2-38" style="edgeStyle=orthogonalEdgeStyle;rounded=0;orthogonalLoop=1;jettySize=auto;html=1;exitX=0.5;exitY=1;exitDx=0;exitDy=0;entryX=0.196;entryY=0.001;entryDx=0;entryDy=0;entryPerimeter=0;endArrow=none;endFill=0;" parent="1" source="qwGrxkF3Ybjj59Ug6xA2-37" target="qwGrxkF3Ybjj59Ug6xA2-20" edge="1">
          <mxGeometry relative="1" as="geometry">
            <Array as="points">
              <mxPoint x="490" y="-180" />
              <mxPoint x="490" y="-160" />
            </Array>
          </mxGeometry>
        </mxCell>
        <mxCell id="qwGrxkF3Ybjj59Ug6xA2-37" value="&lt;u&gt;id&lt;/u&gt;" style="ellipse;whiteSpace=wrap;html=1;align=center;" parent="1" vertex="1">
          <mxGeometry x="470" y="-190" width="45" height="20" as="geometry" />
        </mxCell>
        <mxCell id="qwGrxkF3Ybjj59Ug6xA2-40" style="edgeStyle=orthogonalEdgeStyle;rounded=0;orthogonalLoop=1;jettySize=auto;html=1;entryX=0.5;entryY=0;entryDx=0;entryDy=0;endArrow=none;endFill=0;" parent="1" source="qwGrxkF3Ybjj59Ug6xA2-39" target="qwGrxkF3Ybjj59Ug6xA2-20" edge="1">
          <mxGeometry relative="1" as="geometry" />
        </mxCell>
        <mxCell id="qwGrxkF3Ybjj59Ug6xA2-41" style="edgeStyle=orthogonalEdgeStyle;rounded=0;orthogonalLoop=1;jettySize=auto;html=1;entryX=0.61;entryY=1;entryDx=0;entryDy=0;entryPerimeter=0;endArrow=ERmany;endFill=0;" parent="1" source="qwGrxkF3Ybjj59Ug6xA2-39" target="M-Kk_DBBXMK0dHsBA82f-1" edge="1">
          <mxGeometry relative="1" as="geometry">
            <Array as="points">
              <mxPoint x="593" y="-850" />
              <mxPoint x="283" y="-850" />
            </Array>
          </mxGeometry>
        </mxCell>
        <mxCell id="qwGrxkF3Ybjj59Ug6xA2-39" value="empregado_compra" style="shape=rhombus;perimeter=rhombusPerimeter;whiteSpace=wrap;html=1;align=center;" parent="1" vertex="1">
          <mxGeometry x="520" y="-690" width="145" height="60" as="geometry" />
        </mxCell>
        <mxCell id="qwGrxkF3Ybjj59Ug6xA2-44" style="edgeStyle=orthogonalEdgeStyle;rounded=0;orthogonalLoop=1;jettySize=auto;html=1;entryX=1;entryY=0;entryDx=0;entryDy=0;endArrow=none;endFill=0;" parent="1" source="qwGrxkF3Ybjj59Ug6xA2-42" target="qwGrxkF3Ybjj59Ug6xA2-39" edge="1">
          <mxGeometry relative="1" as="geometry" />
        </mxCell>
        <mxCell id="qwGrxkF3Ybjj59Ug6xA2-42" value="id_empregado" style="ellipse;whiteSpace=wrap;html=1;align=center;" parent="1" vertex="1">
          <mxGeometry x="680" y="-700" width="90" height="30" as="geometry" />
        </mxCell>
        <mxCell id="qwGrxkF3Ybjj59Ug6xA2-45" style="edgeStyle=orthogonalEdgeStyle;rounded=0;orthogonalLoop=1;jettySize=auto;html=1;entryX=1;entryY=1;entryDx=0;entryDy=0;endArrow=none;endFill=0;" parent="1" source="qwGrxkF3Ybjj59Ug6xA2-43" target="qwGrxkF3Ybjj59Ug6xA2-39" edge="1">
          <mxGeometry relative="1" as="geometry" />
        </mxCell>
        <mxCell id="qwGrxkF3Ybjj59Ug6xA2-43" value="id_compra" style="ellipse;whiteSpace=wrap;html=1;align=center;" parent="1" vertex="1">
          <mxGeometry x="682.5" y="-650" width="85" height="30" as="geometry" />
        </mxCell>
        <mxCell id="qwGrxkF3Ybjj59Ug6xA2-47" style="edgeStyle=orthogonalEdgeStyle;rounded=0;orthogonalLoop=1;jettySize=auto;html=1;entryX=0;entryY=0.5;entryDx=0;entryDy=0;endArrow=none;endFill=0;" parent="1" source="qwGrxkF3Ybjj59Ug6xA2-46" target="qwGrxkF3Ybjj59Ug6xA2-39" edge="1">
          <mxGeometry relative="1" as="geometry" />
        </mxCell>
        <mxCell id="qwGrxkF3Ybjj59Ug6xA2-46" value="comissao" style="ellipse;whiteSpace=wrap;html=1;align=center;" parent="1" vertex="1">
          <mxGeometry x="410" y="-675" width="80" height="30" as="geometry" />
        </mxCell>
        <mxCell id="fSYFpK1Vkwz873p__v1r-2" style="edgeStyle=orthogonalEdgeStyle;rounded=0;orthogonalLoop=1;jettySize=auto;html=1;entryX=0.17;entryY=1.01;entryDx=0;entryDy=0;entryPerimeter=0;endArrow=none;endFill=0;" edge="1" parent="1" source="fSYFpK1Vkwz873p__v1r-1" target="qwGrxkF3Ybjj59Ug6xA2-20">
          <mxGeometry relative="1" as="geometry" />
        </mxCell>
        <mxCell id="fSYFpK1Vkwz873p__v1r-1" value="sexo" style="ellipse;whiteSpace=wrap;html=1;align=center;" vertex="1" parent="1">
          <mxGeometry x="467.5" y="-60" width="50" height="20" as="geometry" />
        </mxCell>
        <mxCell id="fSYFpK1Vkwz873p__v1r-5" style="edgeStyle=orthogonalEdgeStyle;rounded=0;orthogonalLoop=1;jettySize=auto;html=1;entryX=0.07;entryY=1.025;entryDx=0;entryDy=0;entryPerimeter=0;endArrow=none;endFill=0;exitX=1;exitY=0.5;exitDx=0;exitDy=0;" edge="1" parent="1" source="fSYFpK1Vkwz873p__v1r-4">
          <mxGeometry relative="1" as="geometry">
            <mxPoint x="460" y="-76" as="sourcePoint" />
            <mxPoint x="482" y="-119.99999999999977" as="targetPoint" />
          </mxGeometry>
        </mxCell>
        <mxCell id="fSYFpK1Vkwz873p__v1r-4" value="salario" style="ellipse;whiteSpace=wrap;html=1;align=center;" vertex="1" parent="1">
          <mxGeometry x="410" y="-80" width="50" height="20" as="geometry" />
        </mxCell>
        <mxCell id="fSYFpK1Vkwz873p__v1r-9" style="edgeStyle=orthogonalEdgeStyle;rounded=0;orthogonalLoop=1;jettySize=auto;html=1;endArrow=ERmany;endFill=0;" edge="1" parent="1" source="fSYFpK1Vkwz873p__v1r-6">
          <mxGeometry relative="1" as="geometry">
            <mxPoint x="560" y="-120" as="targetPoint" />
            <Array as="points">
              <mxPoint x="560" y="-85" />
              <mxPoint x="560" y="-120" />
            </Array>
          </mxGeometry>
        </mxCell>
        <mxCell id="fSYFpK1Vkwz873p__v1r-14" value="gerente" style="edgeLabel;html=1;align=center;verticalAlign=middle;resizable=0;points=[];" vertex="1" connectable="0" parent="fSYFpK1Vkwz873p__v1r-9">
          <mxGeometry x="-0.6358" relative="1" as="geometry">
            <mxPoint x="-12" as="offset" />
          </mxGeometry>
        </mxCell>
        <mxCell id="fSYFpK1Vkwz873p__v1r-13" style="edgeStyle=orthogonalEdgeStyle;rounded=0;orthogonalLoop=1;jettySize=auto;html=1;endArrow=ERmany;endFill=0;exitX=0.5;exitY=0;exitDx=0;exitDy=0;" edge="1" parent="1" source="fSYFpK1Vkwz873p__v1r-6">
          <mxGeometry relative="1" as="geometry">
            <mxPoint x="575" y="-140" as="targetPoint" />
            <Array as="points">
              <mxPoint x="695" y="-140" />
              <mxPoint x="575" y="-140" />
            </Array>
          </mxGeometry>
        </mxCell>
        <mxCell id="fSYFpK1Vkwz873p__v1r-15" value="subordinado" style="edgeLabel;html=1;align=center;verticalAlign=middle;resizable=0;points=[];" vertex="1" connectable="0" parent="fSYFpK1Vkwz873p__v1r-13">
          <mxGeometry x="0.1196" relative="1" as="geometry">
            <mxPoint x="-6" as="offset" />
          </mxGeometry>
        </mxCell>
        <mxCell id="fSYFpK1Vkwz873p__v1r-6" value="Gerencia" style="shape=rhombus;perimeter=rhombusPerimeter;whiteSpace=wrap;html=1;align=center;" vertex="1" parent="1">
          <mxGeometry x="650" y="-105" width="90" height="40" as="geometry" />
        </mxCell>
        <mxCell id="fSYFpK1Vkwz873p__v1r-24" style="edgeStyle=orthogonalEdgeStyle;rounded=0;orthogonalLoop=1;jettySize=auto;html=1;entryX=1;entryY=0;entryDx=0;entryDy=0;endArrow=none;endFill=0;" edge="1" parent="1" source="fSYFpK1Vkwz873p__v1r-16" target="fSYFpK1Vkwz873p__v1r-6">
          <mxGeometry relative="1" as="geometry" />
        </mxCell>
        <mxCell id="fSYFpK1Vkwz873p__v1r-16" value="&lt;u&gt;cpf_ger&lt;/u&gt;" style="ellipse;whiteSpace=wrap;html=1;align=center;" vertex="1" parent="1">
          <mxGeometry x="767.5" y="-130" width="60" height="25" as="geometry" />
        </mxCell>
        <mxCell id="fSYFpK1Vkwz873p__v1r-20" style="edgeStyle=orthogonalEdgeStyle;rounded=0;orthogonalLoop=1;jettySize=auto;html=1;exitX=0;exitY=0.5;exitDx=0;exitDy=0;endArrow=none;endFill=0;" edge="1" parent="1" source="fSYFpK1Vkwz873p__v1r-17">
          <mxGeometry relative="1" as="geometry">
            <mxPoint x="620" y="-200.03773584905662" as="targetPoint" />
          </mxGeometry>
        </mxCell>
        <mxCell id="fSYFpK1Vkwz873p__v1r-17" value="&lt;u&gt;cpf&lt;/u&gt;" style="ellipse;whiteSpace=wrap;html=1;align=center;" vertex="1" parent="1">
          <mxGeometry x="635" y="-210" width="35" height="20" as="geometry" />
        </mxCell>
        <mxCell id="fSYFpK1Vkwz873p__v1r-23" style="edgeStyle=orthogonalEdgeStyle;rounded=0;orthogonalLoop=1;jettySize=auto;html=1;exitX=0;exitY=0.5;exitDx=0;exitDy=0;entryX=1;entryY=1;entryDx=0;entryDy=0;endArrow=none;endFill=0;" edge="1" parent="1" source="fSYFpK1Vkwz873p__v1r-21" target="fSYFpK1Vkwz873p__v1r-6">
          <mxGeometry relative="1" as="geometry" />
        </mxCell>
        <mxCell id="fSYFpK1Vkwz873p__v1r-21" value="&lt;u&gt;cpf_sub&lt;/u&gt;" style="ellipse;whiteSpace=wrap;html=1;align=center;" vertex="1" parent="1">
          <mxGeometry x="767.5" y="-70" width="60" height="25" as="geometry" />
        </mxCell>
      </root>
    </mxGraphModel>
  </diagram>
</mxfile>
